<?xml version="1.0" standalone="no"?>
<!DOCTYPE svg PUBLIC "-//W3C//DTD SVG 20010904//EN"
 "http://www.w3.org/TR/2001/REC-SVG-20010904/DTD/svg10.dtd">
<svg version="1.0" xmlns="http://www.w3.org/2000/svg"
 width="314.000000pt" height="292.000000pt" viewBox="0 0 314.000000 292.000000"
 preserveAspectRatio="xMidYMid meet">

<g transform="translate(0.000000,292.000000) scale(0.100000,-0.100000)"
fill="#000000" stroke="none">
<path d="M2050 2889 c0 -26 -2 -30 -15 -19 -19 16 -32 6 -40 -31 -5 -20 -18
-37 -36 -48 -29 -16 -37 -35 -19 -46 6 -3 24 9 41 27 l31 33 -17 -34 c-13 -26
-15 -39 -6 -57 14 -31 38 -30 80 5 l34 28 -13 47 c-10 36 -10 49 -1 60 19 23
9 61 -16 64 -20 3 -23 -1 -23 -29z"/>
<path d="M1331 2791 c-28 -28 -48 -98 -34 -119 29 -47 116 -3 129 65 6 31 3
39 -16 55 -29 23 -55 23 -79 -1z"/>
<path d="M2228 2791 c-8 -11 -25 -18 -42 -18 -58 0 -91 -79 -51 -123 25 -28
97 -28 125 0 23 23 25 39 8 75 -8 19 -9 28 0 37 8 8 8 17 1 30 -12 23 -24 23
-41 -1z"/>
<path d="M1775 2712 c-7 -23 4 -54 16 -46 12 7 12 51 0 59 -5 3 -12 -3 -16
-13z"/>
<path d="M1910 2648 c-16 -68 -24 -83 -47 -83 -11 0 -19 -9 -21 -22 -4 -31
-22 -29 -22 1 0 34 -14 40 -48 22 -34 -18 -44 -38 -36 -71 5 -21 2 -24 -27
-27 -43 -4 -48 -24 -9 -33 29 -6 30 -8 16 -24 -9 -10 -16 -25 -16 -33 0 -9 -7
-21 -16 -29 -13 -11 -19 -8 -40 17 -23 28 -24 28 -39 10 -8 -11 -15 -26 -15
-33 0 -18 -15 -16 -31 3 -11 13 -10 17 4 26 13 7 15 13 7 29 -13 23 -36 25
-44 3 -10 -25 -7 -84 4 -84 12 0 40 -54 39 -77 0 -14 -3 -13 -12 5 -10 21 -15
23 -54 17 l-42 -6 -12 46 c-6 25 -17 44 -23 42 -6 -2 -16 -28 -21 -57 -6 -30
-16 -55 -22 -57 -7 -3 -25 11 -42 29 l-30 33 -10 -27 c-21 -55 -91 -58 -91 -4
0 26 16 36 58 36 43 0 51 11 45 57 -11 83 -103 77 -103 -8 0 -25 -4 -24 -34 6
-14 14 -42 27 -65 31 -39 6 -61 30 -47 53 7 10 -22 71 -34 71 -4 0 -14 -7 -21
-16 -9 -11 -23 -14 -47 -11 -25 5 -37 1 -49 -13 -15 -18 -17 -17 -48 16 -18
19 -42 34 -53 34 -11 0 -27 3 -36 6 -9 3 -3 -8 13 -25 32 -34 57 -94 46 -111
-3 -5 -20 -10 -36 -10 -51 0 -69 -16 -69 -60 0 -27 -7 -45 -21 -59 l-21 -20
21 6 c14 3 23 0 27 -11 8 -20 -15 -49 -33 -42 -8 3 -13 -2 -13 -14 0 -27 37
-36 61 -15 27 25 49 4 49 -47 0 -46 21 -59 50 -33 19 17 20 17 20 -1 0 -25
-18 -44 -42 -44 -24 0 -23 -12 2 -28 47 -29 6 -106 -90 -167 -45 -29 -56 -62
-35 -111 8 -20 15 -38 15 -40 0 -2 -18 -1 -40 2 -48 8 -73 -10 -91 -63 l-11
-35 -57 7 c-68 9 -71 10 -71 41 0 31 -25 41 -49 20 -20 -19 -54 -21 -82 -5
-16 8 -25 7 -40 -7 -27 -25 -15 -34 47 -34 32 0 69 -7 87 -17 31 -16 32 -16 9
-26 -15 -7 -34 -6 -60 2 -96 32 -106 -16 -14 -67 34 -18 60 -37 57 -42 -2 -4
-42 -26 -89 -49 -46 -23 -87 -48 -90 -57 -11 -28 24 -30 155 -8 36 6 37 5 55
-42 17 -45 18 -46 26 -22 8 22 16 26 59 30 27 3 58 13 68 23 39 35 57 -21 24
-76 -24 -40 -9 -48 26 -15 28 27 32 28 97 21 109 -11 109 -10 74 -53 -38 -46
-38 -66 0 -94 17 -12 30 -25 30 -30 0 -5 -16 -16 -35 -25 -19 -9 -35 -20 -35
-25 0 -19 -20 -6 -26 17 -7 30 -15 31 -39 5 -22 -24 -50 -27 -41 -4 4 12 1 14
-14 10 -11 -3 -30 -9 -42 -12 -49 -14 -78 -67 -44 -80 19 -7 56 13 56 30 0 8
7 19 16 27 13 10 17 10 25 -2 13 -21 11 -25 -17 -37 -33 -16 -30 -55 4 -60 30
-4 54 16 47 38 -4 11 -1 17 7 17 7 -1 30 3 51 7 52 11 67 -4 67 -66 0 -51 3
-56 81 -122 26 -22 24 -36 -14 -92 -34 -49 -67 -108 -67 -119 0 -12 37 -4 68
15 17 11 32 18 32 17 0 -2 -7 -26 -15 -55 -11 -38 -19 -50 -30 -46 -10 4 -15
-1 -15 -16 0 -35 -22 -18 -58 46 -19 32 -39 62 -45 66 -16 10 -62 -36 -52 -52
6 -9 9 -10 15 0 13 21 48 -7 61 -50 10 -33 9 -43 -5 -65 -16 -24 -22 -26 -54
-20 -20 4 -53 15 -73 26 -37 18 -117 49 -131 49 -5 0 -8 -6 -8 -13 0 -25 47
-44 203 -80 50 -12 57 -22 30 -43 -14 -11 -15 -13 -2 -9 9 3 39 -3 68 -15 28
-11 67 -20 86 -20 42 0 91 -27 105 -59 10 -22 12 -23 27 -9 20 21 13 31 -39
58 -46 23 -78 48 -78 60 0 5 11 11 25 14 32 8 61 55 69 111 5 28 13 44 24 47
23 6 44 -1 36 -13 -3 -5 -2 -9 3 -9 7 0 25 24 67 93 18 30 50 35 105 16 32
-11 43 -39 16 -39 -8 0 -15 -7 -15 -15 0 -9 21 -20 58 -31 92 -27 132 -50 132
-79 0 -25 -26 -59 -51 -67 -18 -6 -2 -27 29 -39 34 -13 47 2 43 47 -2 32 -1
35 18 29 16 -5 23 2 40 37 l20 43 -5 -36 c-5 -30 0 -42 30 -78 40 -48 49 -103
19 -119 -15 -9 -14 -12 5 -37 12 -15 22 -39 22 -54 0 -37 -24 -112 -35 -111
-5 1 -11 -4 -14 -11 -2 -8 2 -10 13 -6 13 5 16 -1 16 -33 0 -39 1 -40 34 -40
40 0 86 15 86 29 0 5 -16 12 -35 15 -35 7 -35 7 -35 60 0 38 6 61 20 79 11 14
20 28 20 31 0 3 -9 6 -20 6 -28 0 -25 14 7 35 25 17 26 18 8 31 -17 13 -17 15
-2 32 15 17 15 19 0 35 -16 16 -16 17 4 17 35 0 47 24 32 65 -14 38 -8 59 24
79 12 8 20 7 29 -2 10 -10 8 -19 -6 -43 -18 -30 -18 -32 0 -49 11 -10 28 -20
39 -22 16 -2 21 3 23 29 4 43 32 45 32 4 0 -16 -4 -41 -10 -55 -15 -41 -4 -54
46 -54 24 1 44 4 44 7 0 4 -9 24 -21 45 -36 68 -8 106 79 106 20 0 54 3 74 6
34 6 36 8 26 30 -16 34 -5 49 54 81 52 28 56 35 43 80 -5 17 -1 24 22 35 23
11 29 22 34 57 6 44 28 71 58 71 10 0 8 7 -10 26 l-24 26 47 -28 c36 -22 44
-31 36 -41 -8 -10 -6 -19 7 -33 22 -24 35 -26 35 -5 0 50 64 -25 106 -126 34
-82 58 -119 76 -119 15 0 8 30 -22 90 -36 72 -37 75 -5 54 36 -24 59 -15 65
26 6 41 26 48 71 26 24 -12 35 -13 45 -5 10 8 19 4 38 -18 22 -25 25 -26 31
-10 10 23 -1 48 -24 54 -10 3 -23 19 -28 36 -12 43 -46 48 -83 12 -24 -23 -31
-25 -49 -16 -38 21 -24 39 47 61 94 28 98 32 77 64 l-18 26 49 -2 c36 -2 55
-9 73 -27 20 -21 27 -23 51 -14 19 7 32 7 38 1 13 -13 32 -2 32 18 0 11 -6 13
-19 9 -11 -3 -28 -2 -38 4 -20 11 -74 25 -86 23 -4 -1 -26 7 -48 18 -22 12
-74 29 -116 40 -41 10 -85 28 -97 39 -17 16 -30 20 -54 15 -44 -9 -40 -1 13
30 52 31 57 53 16 67 -26 9 -28 13 -21 40 5 18 5 31 -2 35 -11 7 -28 -13 -28
-33 0 -19 -14 -16 -35 7 -17 19 -16 20 10 51 17 22 25 39 21 53 -3 12 -6 29
-6 38 0 12 -5 15 -16 11 -13 -5 -15 1 -13 38 4 47 4 47 -55 35 -29 -7 -40 -5
-47 5 -10 17 12 27 64 28 33 1 38 4 43 31 4 16 13 35 20 41 19 16 17 26 -7 40
-25 13 -39 -1 -39 -38 0 -14 -6 -23 -15 -23 -8 0 -15 6 -15 14 0 8 -7 16 -15
20 -8 3 -12 12 -9 21 3 8 1 15 -5 15 -6 0 -11 -7 -11 -15 0 -14 -29 -35 -50
-35 -6 0 -10 12 -8 27 3 29 20 37 101 48 38 5 50 12 61 33 11 21 11 33 4 47
-8 14 -8 20 0 23 7 2 12 14 12 27 0 21 3 23 39 18 25 -3 41 -1 46 7 10 16 -12
30 -47 30 -21 0 -28 5 -28 20 0 26 35 43 76 36 26 -5 35 -3 43 12 12 22 5 33
-15 25 -8 -3 -14 1 -14 10 0 11 12 17 38 19 30 2 37 6 34 23 -2 19 -2 19 11 3
20 -25 30 -22 23 6 -5 20 -1 26 24 35 17 5 30 17 30 25 0 22 -16 28 -30 11 -7
-8 -28 -15 -46 -15 -20 0 -34 -5 -34 -12 0 -7 -9 -2 -19 11 -21 28 -46 20 -37
-12 3 -11 0 -29 -6 -41 -11 -20 -11 -20 -19 3 -12 30 -28 23 -58 -22 -21 -32
-26 -35 -36 -20 -8 10 -20 14 -34 10 -18 -4 -21 -2 -16 13 4 12 -1 19 -13 22
-15 4 -18 12 -14 37 3 26 8 30 23 26 21 -7 24 6 9 36 -9 15 -7 21 5 25 23 9
18 34 -7 33 -13 -1 -49 10 -81 25 -69 31 -67 31 -67 6 0 -32 -29 -23 -52 16
-17 28 -26 35 -45 31 -17 -3 -23 0 -23 13 0 17 -33 50 -76 76 -18 11 -17 13 8
22 15 6 43 8 62 5 27 -4 37 -2 42 10 10 28 -5 38 -35 23 -25 -13 -28 -13 -39
5 -7 11 -23 19 -39 19 -21 0 -24 3 -15 12 21 21 13 30 -20 23 l-33 -6 22 18
c16 12 21 25 17 39 -3 12 0 32 6 44 11 21 10 22 -13 16 -16 -4 -29 -1 -37 9
-7 8 -21 15 -31 15 -13 0 -19 7 -19 24 0 20 7 25 45 35 49 12 64 41 21 41 -17
0 -26 7 -30 25 -11 42 -33 29 -46 -27z m404 -634 c4 -9 4 -19 2 -21 -8 -8 -26
8 -26 23 0 19 16 18 24 -2z"/>
<path d="M1662 2668 c-20 -26 -23 -56 -7 -72 20 -20 29 -20 49 0 20 19 20 18
1 54 -17 33 -27 37 -43 18z"/>
<path d="M584 2646 c-3 -8 -4 -25 -2 -38 2 -18 9 -23 33 -23 43 -1 75 -14 75
-31 0 -18 -5 -18 -36 2 -18 12 -28 14 -36 6 -14 -14 14 -59 47 -74 36 -16 55
-4 55 36 0 27 3 33 18 30 9 -2 23 0 31 5 13 8 13 12 0 27 -17 21 -70 44 -102
44 -14 0 -30 7 -37 15 -16 19 -39 19 -46 1z"/>
<path d="M820 2630 c0 -5 7 -10 15 -10 8 0 15 5 15 10 0 6 -7 10 -15 10 -8 0
-15 -4 -15 -10z"/>
<path d="M2476 2631 c-4 -7 -5 -15 -2 -18 9 -9 19 4 14 18 -4 11 -6 11 -12 0z"/>
<path d="M930 2597 c0 -18 27 -53 34 -46 9 9 -11 59 -24 59 -5 0 -10 -6 -10
-13z"/>
<path d="M1590 2574 c0 -8 5 -12 10 -9 6 3 10 10 10 16 0 5 -4 9 -10 9 -5 0
-10 -7 -10 -16z"/>
<path d="M836 2571 c-4 -7 -5 -15 -2 -18 9 -9 19 4 14 18 -4 11 -6 11 -12 0z"/>
<path d="M1592 2538 c-15 -15 -16 -45 -2 -53 17 -10 71 5 77 22 7 17 -14 34
-34 26 -7 -3 -13 0 -13 6 0 14 -13 14 -28 -1z"/>
<path d="M2152 2539 c2 -6 8 -10 13 -10 5 0 11 4 13 10 2 6 -4 11 -13 11 -9 0
-15 -5 -13 -11z"/>
<path d="M525 2509 c-10 -15 3 -25 16 -12 7 7 7 13 1 17 -6 3 -14 1 -17 -5z"/>
<path d="M2415 2501 c-3 -5 -1 -12 4 -15 5 -3 11 1 15 9 6 16 -9 21 -19 6z"/>
<path d="M2257 2483 c-11 -10 -8 -43 3 -43 6 0 10 11 10 25 0 26 -2 29 -13 18z"/>
<path d="M1520 2470 c0 -5 4 -10 9 -10 6 0 13 5 16 10 3 6 -1 10 -9 10 -9 0
-16 -4 -16 -10z"/>
<path d="M2055 2471 c-6 -11 9 -23 19 -14 9 9 7 23 -3 23 -6 0 -12 -4 -16 -9z"/>
<path d="M435 2460 c-3 -5 1 -10 9 -10 9 0 16 5 16 10 0 6 -4 10 -9 10 -6 0
-13 -4 -16 -10z"/>
<path d="M533 2450 c-25 -10 -32 -40 -10 -40 14 0 47 31 47 43 0 9 -9 8 -37
-3z"/>
<path d="M786 2451 c-4 -7 -5 -15 -2 -18 9 -9 19 4 14 18 -4 11 -6 11 -12 0z"/>
<path d="M1610 2439 c0 -11 5 -17 10 -14 6 3 10 13 10 21 0 8 -4 14 -10 14 -5
0 -10 -9 -10 -21z"/>
<path d="M2345 2441 c-6 -11 9 -23 19 -14 9 9 7 23 -3 23 -6 0 -12 -4 -16 -9z"/>
<path d="M1454 2376 c-8 -31 3 -66 21 -66 21 0 25 14 14 53 -11 43 -26 48 -35
13z"/>
<path d="M697 2383 c-11 -10 -8 -43 3 -43 6 0 10 11 10 25 0 26 -2 29 -13 18z"/>
<path d="M475 2361 c-6 -11 9 -23 19 -14 9 9 7 23 -3 23 -6 0 -12 -4 -16 -9z"/>
<path d="M2491 2342 c-43 -20 -64 -53 -55 -86 3 -14 10 -26 16 -26 5 0 8 -10
6 -22 -3 -20 1 -23 27 -20 17 2 39 12 50 22 11 9 25 16 32 13 21 -8 24 16 3
27 -15 8 -20 21 -20 54 0 52 -14 61 -59 38z"/>
<path d="M550 2334 c0 -8 5 -12 10 -9 6 3 10 10 10 16 0 5 -4 9 -10 9 -5 0
-10 -7 -10 -16z"/>
<path d="M626 2341 c-4 -5 -2 -12 3 -15 5 -4 12 -2 15 3 4 5 2 12 -3 15 -5 4
-12 2 -15 -3z"/>
<path d="M1345 2321 c-6 -11 9 -23 19 -14 9 9 7 23 -3 23 -6 0 -12 -4 -16 -9z"/>
<path d="M520 2295 c1 -26 2 -28 11 -12 8 14 8 22 0 30 -8 8 -11 3 -11 -18z"/>
<path d="M577 2292 c-13 -14 -14 -21 -5 -30 15 -15 38 3 38 29 0 24 -12 24
-33 1z"/>
<path d="M2145 2279 c-10 -15 1 -22 24 -14 12 3 19 11 16 16 -8 12 -32 11 -40
-2z"/>
<path d="M2325 2281 c-3 -5 -1 -12 4 -15 5 -3 11 1 15 9 6 16 -9 21 -19 6z"/>
<path d="M2265 2269 c-10 -15 3 -25 16 -12 7 7 7 13 1 17 -6 3 -14 1 -17 -5z"/>
<path d="M2615 2250 c-3 -5 -2 -10 4 -10 5 0 13 5 16 10 3 6 2 10 -4 10 -5 0
-13 -4 -16 -10z"/>
<path d="M2340 2214 c0 -8 5 -12 10 -9 6 3 10 10 10 16 0 5 -4 9 -10 9 -5 0
-10 -7 -10 -16z"/>
<path d="M520 2194 c0 -8 5 -12 10 -9 6 3 10 10 10 16 0 5 -4 9 -10 9 -5 0
-10 -7 -10 -16z"/>
<path d="M2260 2195 c0 -8 5 -15 10 -15 6 0 10 7 10 15 0 8 -4 15 -10 15 -5 0
-10 -7 -10 -15z"/>
<path d="M620 2181 c0 -12 26 -32 33 -25 9 10 -4 34 -19 34 -8 0 -14 -4 -14
-9z"/>
<path d="M540 2160 c0 -5 7 -10 15 -10 8 0 15 5 15 10 0 6 -7 10 -15 10 -8 0
-15 -4 -15 -10z"/>
<path d="M677 2144 c-4 -4 -7 -14 -7 -23 0 -11 3 -12 11 -4 6 6 10 16 7 23 -2
6 -7 8 -11 4z"/>
<path d="M735 2131 c-6 -11 9 -23 19 -14 9 9 7 23 -3 23 -6 0 -12 -4 -16 -9z"/>
<path d="M526 2121 c-4 -7 -5 -15 -2 -18 9 -9 19 4 14 18 -4 11 -6 11 -12 0z"/>
<path d="M626 2072 c-4 -13 -5 -26 -2 -29 10 -11 18 4 14 29 l-4 23 -8 -23z"/>
<path d="M776 2081 c-4 -7 -5 -15 -2 -18 9 -9 19 4 14 18 -4 11 -6 11 -12 0z"/>
<path d="M2454 2075 c-3 -8 -3 -19 1 -25 11 -18 25 -11 25 15 0 27 -17 34 -26
10z"/>
<path d="M637 2012 c-25 -27 -21 -32 21 -30 35 1 38 3 34 25 -5 28 -32 30 -55
5z"/>
<path d="M2780 2005 c-13 -14 -21 -28 -18 -31 10 -9 68 26 68 41 0 23 -24 18
-50 -10z"/>
<path d="M580 1994 c0 -8 5 -12 10 -9 6 3 10 10 10 16 0 5 -4 9 -10 9 -5 0
-10 -7 -10 -16z"/>
<path d="M755 1970 c-11 -13 -14 -20 -6 -20 18 0 51 19 51 30 0 17 -26 11 -45
-10z"/>
<path d="M456 1965 c-3 -8 -1 -15 4 -15 13 0 22 18 11 24 -5 3 -11 -1 -15 -9z"/>
<path d="M2680 1930 c-14 -27 -4 -57 25 -76 24 -15 65 -12 65 6 0 5 7 15 15
23 13 14 11 18 -16 41 -37 31 -74 34 -89 6z"/>
<path d="M590 1891 c0 -12 26 -32 33 -25 9 10 -4 34 -19 34 -8 0 -14 -4 -14
-9z"/>
<path d="M435 1870 c-3 -5 1 -10 9 -10 9 0 16 5 16 10 0 6 -4 10 -9 10 -6 0
-13 -4 -16 -10z"/>
<path d="M630 1830 c-12 -7 -12 -12 -3 -21 10 -10 14 -9 19 5 8 22 2 27 -16
16z"/>
<path d="M575 1761 c-6 -11 41 -51 60 -51 18 0 27 30 14 46 -13 16 -65 19 -74
5z"/>
<path d="M2555 1759 c-10 -15 3 -25 16 -12 7 7 7 13 1 17 -6 3 -14 1 -17 -5z"/>
<path d="M2666 1744 c-4 -10 -1 -14 6 -12 15 5 23 28 10 28 -5 0 -13 -7 -16
-16z"/>
<path d="M520 1729 c0 -11 5 -17 10 -14 6 3 10 13 10 21 0 8 -4 14 -10 14 -5
0 -10 -9 -10 -21z"/>
<path d="M177 1653 c-9 -16 13 -54 38 -65 31 -14 50 0 41 29 -9 28 -68 54 -79
36z"/>
<path d="M2658 1639 c-18 -10 -25 -39 -10 -39 13 0 52 30 52 41 0 12 -20 11
-42 -2z"/>
<path d="M2576 1614 c-16 -16 -21 -34 -10 -34 7 0 44 40 44 47 0 9 -20 1 -34
-13z"/>
<path d="M2600 1565 c0 -8 9 -15 20 -15 24 0 27 15 4 24 -22 9 -24 8 -24 -9z"/>
<path d="M2680 1524 c0 -8 5 -12 10 -9 6 3 10 10 10 16 0 5 -4 9 -10 9 -5 0
-10 -7 -10 -16z"/>
<path d="M2980 1500 c0 -5 4 -10 9 -10 6 0 13 5 16 10 3 6 -1 10 -9 10 -9 0
-16 -4 -16 -10z"/>
<path d="M2493 1464 c-6 -16 12 -34 35 -34 6 0 12 11 12 25 0 18 -5 25 -20 25
-11 0 -23 -7 -27 -16z"/>
<path d="M2667 1384 c-4 -4 -7 -14 -7 -23 0 -11 3 -12 11 -4 6 6 10 16 7 23
-2 6 -7 8 -11 4z"/>
<path d="M2534 1367 c-8 -23 11 -92 26 -92 8 0 25 20 39 44 19 35 21 45 10 52
-21 13 -69 11 -75 -4z"/>
<path d="M2770 1354 c0 -8 5 -12 10 -9 6 3 10 10 10 16 0 5 -4 9 -10 9 -5 0
-10 -7 -10 -16z"/>
<path d="M2496 1343 c-4 -9 -3 -20 2 -25 6 -6 12 -1 15 11 6 25 -8 38 -17 14z"/>
<path d="M2688 1329 c-24 -14 -23 -35 4 -53 28 -20 50 -4 46 33 -3 28 -23 36
-50 20z"/>
<path d="M6 1313 c-4 -9 -2 -21 4 -27 7 -7 10 -2 10 17 0 31 -5 34 -14 10z"/>
<path d="M80 1307 l-25 -11 29 -4 c35 -4 76 5 76 18 0 13 -49 12 -80 -3z"/>
<path d="M2880 1274 c0 -8 5 -12 10 -9 6 3 10 10 10 16 0 5 -4 9 -10 9 -5 0
-10 -7 -10 -16z"/>
<path d="M2727 1243 c-11 -10 -8 -43 3 -43 6 0 10 11 10 25 0 26 -2 29 -13 18z"/>
<path d="M2555 1207 c-4 -10 -5 -21 -1 -24 10 -10 18 4 13 24 -4 17 -4 17 -12
0z"/>
<path d="M2605 1200 c3 -5 8 -10 11 -10 2 0 4 5 4 10 0 6 -5 10 -11 10 -5 0
-7 -4 -4 -10z"/>
<path d="M2841 1159 c-53 -42 -61 -58 -37 -79 8 -6 12 -18 9 -26 -4 -11 2 -13
28 -8 70 11 79 15 89 34 8 16 6 24 -11 41 -16 16 -20 29 -15 50 3 16 2 29 -3
29 -5 0 -31 -18 -60 -41z"/>
<path d="M520 1174 c0 -8 5 -12 10 -9 6 3 10 10 10 16 0 5 -4 9 -10 9 -5 0
-10 -7 -10 -16z"/>
<path d="M460 1154 c0 -8 5 -12 10 -9 6 3 10 10 10 16 0 5 -4 9 -10 9 -5 0
-10 -7 -10 -16z"/>
<path d="M707 1163 c-11 -10 -8 -51 4 -59 18 -10 31 11 23 40 -6 26 -15 32
-27 19z"/>
<path d="M2575 1139 c-10 -15 3 -25 16 -12 7 7 7 13 1 17 -6 3 -14 1 -17 -5z"/>
<path d="M515 1110 c-3 -5 -2 -10 4 -10 5 0 13 5 16 10 3 6 2 10 -4 10 -5 0
-13 -4 -16 -10z"/>
<path d="M760 1084 c0 -8 5 -12 10 -9 6 3 10 10 10 16 0 5 -4 9 -10 9 -5 0
-10 -7 -10 -16z"/>
<path d="M505 1069 c-4 -6 -5 -13 -2 -16 7 -7 27 6 27 18 0 12 -17 12 -25 -2z"/>
<path d="M730 960 c-26 -6 -42 -40 -18 -40 18 1 51 27 47 38 -2 4 -15 6 -29 2z"/>
<path d="M465 909 c-10 -15 3 -25 16 -12 7 7 7 13 1 17 -6 3 -14 1 -17 -5z"/>
<path d="M2765 901 c-6 -11 9 -23 19 -14 9 9 7 23 -3 23 -6 0 -12 -4 -16 -9z"/>
<path d="M566 862 c-4 -13 -5 -26 -2 -29 10 -11 18 4 14 29 l-4 23 -8 -23z"/>
<path d="M740 870 c0 -5 7 -10 15 -10 8 0 15 5 15 10 0 6 -7 10 -15 10 -8 0
-15 -4 -15 -10z"/>
<path d="M2730 864 c0 -8 5 -12 10 -9 6 3 10 10 10 16 0 5 -4 9 -10 9 -5 0
-10 -7 -10 -16z"/>
<path d="M2850 834 c0 -8 5 -12 10 -9 6 3 10 10 10 16 0 5 -4 9 -10 9 -5 0
-10 -7 -10 -16z"/>
<path d="M3006 833 c-4 -9 -2 -21 4 -27 7 -7 10 -2 10 17 0 31 -5 34 -14 10z"/>
<path d="M485 814 c-12 -19 -14 -29 -6 -37 14 -14 51 19 51 45 0 26 -25 22
-45 -8z"/>
<path d="M2930 785 c0 -33 2 -35 35 -35 22 0 35 5 35 13 0 22 -31 57 -51 57
-15 0 -19 -7 -19 -35z"/>
<path d="M325 800 c-3 -5 1 -10 9 -10 9 0 16 5 16 10 0 6 -4 10 -9 10 -6 0
-13 -4 -16 -10z"/>
<path d="M670 785 c0 -8 5 -15 10 -15 6 0 10 7 10 15 0 8 -4 15 -10 15 -5 0
-10 -7 -10 -15z"/>
<path d="M713 783 c-14 -5 -18 -49 -5 -57 14 -9 52 24 52 45 0 19 -19 24 -47
12z"/>
<path d="M3038 765 c-8 -19 -8 -31 0 -51 10 -21 18 -25 50 -22 30 2 38 7 40
26 9 60 -66 99 -90 47z"/>
<path d="M777 740 c-16 -17 -25 -34 -22 -40 13 -21 105 -7 105 16 0 8 -10 14
-22 14 -19 0 -20 2 -8 10 13 9 13 11 0 20 -20 13 -21 13 -53 -20z"/>
<path d="M2362 751 c2 -7 7 -12 11 -12 12 1 9 15 -3 20 -7 2 -11 -2 -8 -8z"/>
<path d="M2400 644 c0 -8 5 -12 10 -9 6 3 10 10 10 16 0 5 -4 9 -10 9 -5 0
-10 -7 -10 -16z"/>
<path d="M2303 610 c-3 -13 -13 -19 -27 -17 -15 1 -22 -4 -24 -22 -8 -51 23
-42 76 23 16 20 15 23 -4 30 -11 4 -18 -1 -21 -14z"/>
<path d="M2170 605 c0 -8 5 -15 10 -15 6 0 10 7 10 15 0 8 -4 15 -10 15 -5 0
-10 -7 -10 -15z"/>
<path d="M470 555 c0 -8 5 -15 10 -15 6 0 10 7 10 15 0 8 -4 15 -10 15 -5 0
-10 -7 -10 -15z"/>
<path d="M1138 554 c-31 -16 -37 -48 -12 -58 9 -4 24 0 34 9 9 8 22 15 28 15
19 0 14 20 -5 21 -11 0 -13 3 -5 6 6 2 12 9 12 14 0 13 -21 10 -52 -7z"/>
<path d="M2760 550 c0 -5 7 -10 15 -10 8 0 15 5 15 10 0 6 -7 10 -15 10 -8 0
-15 -4 -15 -10z"/>
<path d="M2132 512 l-22 -39 23 -21 c30 -28 52 -28 82 3 25 24 34 78 16 89 -5
4 -25 -13 -45 -36 l-36 -43 6 43 c4 23 5 42 2 42 -2 0 -14 -17 -26 -38z"/>
<path d="M2392 542 c-27 -4 -57 -45 -48 -67 7 -20 65 -20 94 1 44 30 12 76
-46 66z"/>
<path d="M2590 524 c0 -8 5 -12 10 -9 6 3 10 10 10 16 0 5 -4 9 -10 9 -5 0
-10 -7 -10 -16z"/>
<path d="M2700 515 c0 -8 5 -15 10 -15 6 0 10 7 10 15 0 8 -4 15 -10 15 -5 0
-10 -7 -10 -15z"/>
<path d="M1076 511 c-4 -7 -5 -15 -2 -18 9 -9 19 4 14 18 -4 11 -6 11 -12 0z"/>
<path d="M1234 495 c-26 -26 -30 -65 -7 -73 19 -6 74 53 67 71 -10 27 -34 28
-60 2z"/>
<path d="M1315 511 c-7 -12 12 -24 25 -16 11 7 4 25 -10 25 -5 0 -11 -4 -15
-9z"/>
<path d="M2290 485 c0 -8 5 -15 10 -15 6 0 10 7 10 15 0 8 -4 15 -10 15 -5 0
-10 -7 -10 -15z"/>
<path d="M1350 470 c0 -5 7 -10 15 -10 8 0 15 5 15 10 0 6 -7 10 -15 10 -8 0
-15 -4 -15 -10z"/>
<path d="M2826 471 c-4 -7 -5 -15 -2 -18 9 -9 19 4 14 18 -4 11 -6 11 -12 0z"/>
<path d="M1056 448 c4 -13 8 -32 10 -43 1 -11 3 -22 3 -24 1 -3 7 4 15 14 12
17 12 24 0 47 -18 34 -39 38 -28 6z"/>
<path d="M2030 414 c0 -8 5 -12 10 -9 6 3 10 10 10 16 0 5 -4 9 -10 9 -5 0
-10 -7 -10 -16z"/>
<path d="M1942 408 c-15 -15 -15 -35 -1 -40 8 -3 9 -10 2 -23 -18 -36 3 -57
36 -36 12 7 12 13 0 40 -8 17 -18 31 -22 31 -5 0 -5 9 -2 20 7 23 4 25 -13 8z"/>
<path d="M1165 401 c-6 -11 9 -23 19 -14 9 9 7 23 -3 23 -6 0 -12 -4 -16 -9z"/>
<path d="M1125 391 c-6 -11 9 -23 19 -14 9 9 7 23 -3 23 -6 0 -12 -4 -16 -9z"/>
<path d="M1755 369 c-10 -15 1 -22 24 -14 12 3 19 11 16 16 -8 12 -32 11 -40
-2z"/>
<path d="M790 334 c0 -8 5 -12 10 -9 6 3 10 10 10 16 0 5 -4 9 -10 9 -5 0 -10
-7 -10 -16z"/>
<path d="M1250 335 c0 -8 5 -15 10 -15 6 0 10 7 10 15 0 8 -4 15 -10 15 -5 0
-10 -7 -10 -15z"/>
<path d="M2300 340 c0 -5 5 -10 10 -10 6 0 10 5 10 10 0 6 -4 10 -10 10 -5 0
-10 -4 -10 -10z"/>
<path d="M1750 332 c-23 -7 -50 -34 -50 -48 0 -7 14 -29 30 -48 17 -18 37 -51
46 -72 15 -37 17 -37 28 -17 6 12 30 38 54 59 24 20 41 42 38 49 -2 7 1 18 7
24 9 10 7 16 -8 27 -17 13 -21 13 -31 0 -9 -13 -13 -13 -31 -1 -30 21 -66 33
-83 27z"/>
<path d="M1404 281 c-6 -38 -7 -39 -33 -25 -67 35 -89 4 -64 -91 18 -69 15
-67 85 -49 45 13 72 115 48 178 -14 37 -29 32 -36 -13z"/>
<path d="M1365 301 c-6 -11 9 -23 19 -14 9 9 7 23 -3 23 -6 0 -12 -4 -16 -9z"/>
<path d="M1066 284 c-4 -10 -1 -14 6 -12 15 5 23 28 10 28 -5 0 -13 -7 -16
-16z"/>
<path d="M900 270 c-12 -7 -12 -12 -2 -22 9 -9 15 -9 24 0 16 16 -2 34 -22 22z"/>
<path d="M2356 271 c-4 -7 -5 -15 -2 -18 9 -9 19 4 14 18 -4 11 -6 11 -12 0z"/>
<path d="M2010 254 c0 -8 5 -12 10 -9 6 3 10 10 10 16 0 5 -4 9 -10 9 -5 0
-10 -7 -10 -16z"/>
<path d="M1495 231 c-6 -11 9 -23 19 -14 9 9 7 23 -3 23 -6 0 -12 -4 -16 -9z"/>
<path d="M2130 230 c0 -5 7 -10 15 -10 8 0 15 5 15 10 0 6 -7 10 -15 10 -8 0
-15 -4 -15 -10z"/>
<path d="M2007 223 c-11 -10 -8 -43 3 -43 6 0 10 11 10 25 0 26 -2 29 -13 18z"/>
<path d="M1545 201 c-6 -11 9 -23 19 -14 9 9 7 23 -3 23 -6 0 -12 -4 -16 -9z"/>
<path d="M1880 174 c0 -8 5 -12 10 -9 6 3 10 10 10 16 0 5 -4 9 -10 9 -5 0
-10 -7 -10 -16z"/>
<path d="M1205 171 c-6 -11 9 -23 19 -14 9 9 7 23 -3 23 -6 0 -12 -4 -16 -9z"/>
<path d="M1736 171 c-4 -7 -5 -15 -2 -18 9 -9 19 4 14 18 -4 11 -6 11 -12 0z"/>
<path d="M1240 134 c0 -8 5 -12 10 -9 6 3 10 10 10 16 0 5 -4 9 -10 9 -5 0
-10 -7 -10 -16z"/>
<path d="M1255 79 c-10 -15 3 -25 16 -12 7 7 7 13 1 17 -6 3 -14 1 -17 -5z"/>
</g>
</svg>
